<?xml version="1.0" encoding="iso-8859-1"?>
<!-- Uploaded to: SVG Repo, www.svgrepo.com, Generator: SVG Repo Mixer Tools -->
<svg version="1.1" id="Layer_1" xmlns="http://www.w3.org/2000/svg" xmlns:xlink="http://www.w3.org/1999/xlink" 
	 viewBox="0 0 512 512" xml:space="preserve">
<rect x="255.467" y="248.533" style="fill:#FFDB2D;" width="1.067" height="16"/>
<path style="fill:#B9F7F9;" d="M372.267,194.133H139.733c-8.836,0-16-7.164-16-16v-108.8c0-8.836,7.164-16,16-16h232.533
	c8.836,0,16,7.164,16,16v108.8C388.267,186.97,381.103,194.133,372.267,194.133z"/>
<path style="fill:#00D8E0;" d="M372.267,53.333H256v140.8h116.267c8.836,0,16-7.164,16-16v-108.8
	C388.267,60.497,381.103,53.333,372.267,53.333z"/>
<path style="fill:#A7A9AC;" d="M393.6,85.333H118.4c-8.836,0-16-7.164-16-16V16c0-8.836,7.164-16,16-16h275.2
	c8.836,0,16,7.164,16,16v53.333C409.6,78.17,402.436,85.333,393.6,85.333z"/>
<path style="fill:#FFDB2D;" d="M123.733,162.133c0,15.069-2.09,25.287,8.507,30.905l116.267,61.632
	c2.343,1.243,4.918,1.863,7.493,1.863c2.575,0,5.15-0.621,7.493-1.863l116.267-61.632c5.233-2.774,8.507-8.212,8.507-14.137v-0.768
	v-16C381.102,162.133,130.495,162.133,123.733,162.133z"/>
<path style="fill:#FF9900;" d="M256,162.133v94.4c2.575,0,5.15-0.621,7.493-1.863l116.267-61.632
	c5.233-2.774,8.507-8.212,8.507-14.137v-0.768v-16C384.687,162.133,320.342,162.133,256,162.133z"/>
<path style="fill:#B9F7F9;" d="M372.267,391.467H139.733c-8.836,0-16-7.164-16-16v-41.301c0-5.924,3.273-11.362,8.507-14.137
	l116.267-61.632c4.688-2.485,10.3-2.485,14.988,0l116.267,61.632c5.233,2.774,8.507,8.212,8.507,14.137v41.301
	C388.267,384.304,381.103,391.467,372.267,391.467z"/>
<path style="fill:#00D8E0;" d="M379.761,320.03l-116.267-61.632c-2.343-1.243-4.918-1.865-7.493-1.865v134.933h116.267
	c8.836,0,16-7.164,16-16v-41.301C388.267,328.242,384.994,322.803,379.761,320.03z"/>
<path style="fill:#FFDB2D;" d="M372.267,459.733H139.733c-8.836,0-16-7.164-16-16v-84.267h264.533v84.267
	C388.267,452.571,381.104,459.733,372.267,459.733z"/>
<path style="fill:#FF9900;" d="M256,359.467v100.267h116.267c8.836,0,16-7.164,16-16v-84.267H256z"/>
<path style="fill:#A7A9AC;" d="M393.6,512H118.4c-8.836,0-16-7.164-16-16v-53.333c0-8.836,7.164-16,16-16h275.2
	c8.836,0,16,7.164,16,16V496C409.6,504.837,402.436,512,393.6,512z"/>
<g>
	<path style="fill:#808285;" d="M393.6,0H256v85.333h137.6c8.836,0,16-7.164,16-16V16C409.6,7.164,402.436,0,393.6,0z"/>
	<path style="fill:#808285;" d="M393.6,426.667H256V512h137.6c8.836,0,16-7.164,16-16v-53.333
		C409.6,433.83,402.436,426.667,393.6,426.667z"/>
</g>
</svg>